<svg t="1589595656092" class="icon" viewBox="0 0 1160 1024" version="1.1" xmlns="http://www.w3.org/2000/svg" p-id="7508" width="200" height="200"><path d="M1112.287617 889.011984H760.500666l381.10253-390.647137a62.380826 62.380826 0 0 0 0-88.287617L749.933422 18.407457a62.721704 62.721704 0 0 0-88.287616 0l-611.536618 613.581891a62.380826 62.380826 0 0 0 0 88.287616L204.527297 888.330226H46.359521A46.359521 46.359521 0 0 0 0 934.348868v51.131824C0 1011.046605 20.793609 1022.636485 46.359521 1022.636485h1065.928096c25.565912 0 46.359521-12.953395 46.35952-38.178429v-50.790945A46.359521 46.359521 0 0 0 1112.287617 886.284953zM613.581891 954.460719h-260.431425l-264.181092-272.703063a8.181092 8.181092 0 0 1 0-11.249001l611.536618-613.581891a8.181092 8.181092 0 0 1 11.249001 0l391.328895 392.010653a7.840213 7.840213 0 0 1 0 11.249001L613.581891 951.733688z" fill="#2c2c2c" p-id="7509"></path><path d="M718.913449 138.396804a29.997337 29.997337 0 0 0-34.087883 25.906791L620.399467 597.901465 197.368842 653.123835a29.997337 29.997337 0 0 0 3.408788 59.653795H204.527297l446.551265-57.949401a29.997337 29.997337 0 0 0 26.24767-25.906791L744.82024 170.439414a29.997337 29.997337 0 0 0-25.906791-34.087883z" fill="#2c2c2c" p-id="7510"></path></svg>