<svg t="1576337894876" class="icon" viewBox="0 0 1024 1024" version="1.1" xmlns="http://www.w3.org/2000/svg" p-id="10823" width="200" height="200"><path d="M1024 853.333333v113.825007C1024 998.550273 998.529878 1024 967.111111 1024a56.909283 56.909283 0 0 1-42.813719-19.410918L791.840738 853.333333H56.899623C25.474415 853.333333 0 827.858918 0 796.433711V56.899623C0 25.474415 25.474415 0 56.899623 0h910.200754C998.525585 0 1024 25.474415 1024 56.899623V853.333333z" fill="#086666" p-id="10824" data-spm-anchor-id="a313x.7781069.0.i19" class=""></path><path d="M1024 889.875321v77.283019C1024 998.550273 998.529878 1024 967.111111 1024a56.909283 56.909283 0 0 1-42.813719-19.410918L791.840738 853.333333H56.899623C25.474415 853.333333 0 827.858918 0 796.433711v-77.283019C0 750.575899 25.474415 776.050314 56.899623 776.050314h734.940042l132.457727 151.255749A56.909283 56.909283 0 0 0 967.111111 946.716981c31.418767 0 56.888889-25.449727 56.888889-56.84166z" fill="#015551" p-id="10825" data-spm-anchor-id="a313x.7781069.0.i20" class="selected"></path><path d="M227.555556 455.111111h284.444444v113.777778H227.555556zM227.555556 227.555556h455.111111v113.777777H227.555556z" fill="#ffffff" p-id="10826" data-spm-anchor-id="a313x.7781069.0.i16" class=""></path></svg>