<svg t="1589509094290" class="icon" viewBox="0 0 1024 1024" version="1.1" xmlns="http://www.w3.org/2000/svg" p-id="7152" width="200" height="200"><path d="M511.552 289.472l61.312 123.008 136 19.328L610.752 528l23.744 135.488-121.856-63.616-121.472 64.384 22.784-135.488-98.752-95.68 135.936-20.224z" fill="#F7BC39" p-id="7153"></path><path d="M512 1024c-282.304 0-512-229.76-512-512.064s229.696-512 512-512 512 229.696 512 512S794.304 1024 512 1024zM512 107.776a404.608 404.608 0 0 0-404.16 404.16A404.608 404.608 0 0 0 512 916.16a404.544 404.544 0 0 0 404.224-404.224A404.608 404.608 0 0 0 512 107.776z" fill="#F9D84E" p-id="7154"></path></svg>