<svg t="1576320962290" class="icon" viewBox="0 0 1024 1024" version="1.1" xmlns="http://www.w3.org/2000/svg" p-id="23899" width="200" height="200"><path d="M268.373333 439.466667a42.666667 42.666667 0 0 0 46.506667 69.546666 50.773333 50.773333 0 0 0 14.08-9.386666 42.666667 42.666667 0 0 0 8.96-13.653334A36.266667 36.266667 0 0 0 341.333333 469.333333a42.666667 42.666667 0 0 0-12.373333-29.866666 42.666667 42.666667 0 0 0-60.586667 0zM298.666667 213.333333a42.666667 42.666667 0 0 1 0 85.333334 42.666667 42.666667 0 0 0 0 85.333333 128 128 0 1 0-110.933334-192 42.666667 42.666667 0 0 0 15.786667 58.453333 42.666667 42.666667 0 0 0 58.026667-15.786666A42.666667 42.666667 0 0 1 298.666667 213.333333z m512 42.666667h-256a42.666667 42.666667 0 0 0 0 85.333333h256a42.666667 42.666667 0 0 1 42.666666 42.666667v414.72l-66.986666-61.866667a42.666667 42.666667 0 0 0-29.013334-11.52H384a42.666667 42.666667 0 0 1-42.666667-42.666666v-42.666667a42.666667 42.666667 0 0 0-85.333333 0v42.666667a128 128 0 0 0 128 128h356.693333l128 116.48A42.666667 42.666667 0 0 0 896 938.666667a46.933333 46.933333 0 0 0 17.066667-3.413334A42.666667 42.666667 0 0 0 938.666667 896V384a128 128 0 0 0-128-128z" p-id="23900" fill="#13227a"></path></svg>